# xmcd CD database file
#
# Track frame offsets:
#	150
#	24724
#	36274
#	62899
#	86899
#	108724
#	130549
#	155899
#	174124
#	194899
#	218524
#	243949
#	266299
#	306199
#
# Disc length: 4464 seconds
#
# Revision: 0
# Processed by: cddbd v1.5.2PL0 Copyright (c) Steve Scherf et al.
# Submitted via: CDex 1.51
#
DISCID=c6116e0e
DTITLE=B.B. KING - United Recorders(Sunset Sound Recorders)Hollywood - January 10, 1972
DYEAR=1972
DGENRE=Blues
TTITLE0=Everyday I Have The Blues
TTITLE1=How Blue Can You Get
TTITLE2=Just A Little Love
TTITLE3=I Got Some Outside Help I Don't Need
TTITLE4=Ghetto Woman
TTITLE5=Nobody Loves Me But My Mother  - Don't Answer The Door
TTITLE6=Rock Me Baby
TTITLE7=Ain't That Just Like A Woman
TTITLE8=Hummingbird
TTITLE9=Walking Dr. Bill
TTITLE10=Ain't Nobody Home
TTITLE11=The Thrill Is Gone
TTITLE12=Instrumental
TTITLE13=Guess Who
EXTD=YEAR: 1972
EXTT0=
EXTT1=
EXTT2=
EXTT3=
EXTT4=
EXTT5=
EXTT6=
EXTT7=
EXTT8=
EXTT9=
EXTT10=
EXTT11=
EXTT12=
EXTT13=
PLAYORDER=
